<?xml version="1.0" standalone="no"?><!DOCTYPE svg PUBLIC "-//W3C//DTD SVG 1.1//EN" "http://www.w3.org/Graphics/SVG/1.1/DTD/svg11.dtd"><svg t="1525689921163" class="icon" style="" viewBox="0 0 1024 1024" version="1.1" xmlns="http://www.w3.org/2000/svg" p-id="7765" xmlns:xlink="http://www.w3.org/1999/xlink" width="22" height="22"><defs><style type="text/css"></style></defs><path d="M698.280851 403.06383H342.876596l233.940425 40.034042-251.370212 205.072341h381.548936l-225.497873-48.748936 216.782979-196.357447z" fill="#9E1414" p-id="7766"></path><path d="M512 0a512 512 0 1 0 512 512A512 512 0 0 0 512 0z m332.8 420.221277l-130.178723 108.93617 43.302127 277.787234c-8.714894 8.714894-8.987234 8.714894-17.702127 8.714893l-225.770213-138.893617-226.314894 138.893617c-17.429787 0-19.06383 0-19.06383-8.714893l31.046809-277.787234-136.170213-121.46383-47.114893-31.86383h-13.344681v-1.361702l13.344681 1.361702h269.34468l34.587234-61.821276L507.370213 130.723404h17.429787l95.319149 183.285107 34.587234 61.821276h234.212766c8.714894 0 8.714894-5.174468 8.714894 3.540426z" fill="#9E1414" p-id="7767"></path></svg>